<svg xmlns="http://www.w3.org/2000/svg" xmlns:xlink="http://www.w3.org/1999/xlink" version="1.1" width="1000" height="1000" viewBox="0 0 1000 1000" xml:space="preserve">
<desc>Created with Fabric.js 3.5.0</desc>
<defs>
</defs>
<rect x="0" y="0" width="100%" height="100%" fill="rgba(255,255,255,0)"/>
<g transform="matrix(37.8788 0 0 37.8788 500.0001 500.0001)" id="559148">
<g style="" vector-effect="non-scaling-stroke">
		<g transform="matrix(1 0 0 1 -3 6)">
<path style="stroke: rgb(131,131,141); stroke-width: 2; stroke-dasharray: none; stroke-linecap: round; stroke-dashoffset: 0; stroke-linejoin: round; stroke-miterlimit: 4; is-custom-font: none; font-file-url: none; fill: none; fill-rule: nonzero; opacity: 1;" transform=" translate(-9, -18)" d="M 17 21 v -2 a 4 4 0 0 0 -4 -4 H 5 a 4 4 0 0 0 -4 4 v 2" stroke-linecap="round"/>
</g>
		<g transform="matrix(1 0 0 1 -3 -5)">
<circle style="stroke: rgb(131,131,141); stroke-width: 2; stroke-dasharray: none; stroke-linecap: round; stroke-dashoffset: 0; stroke-linejoin: round; stroke-miterlimit: 4; is-custom-font: none; font-file-url: none; fill: none; fill-rule: nonzero; opacity: 1;" cx="0" cy="0" r="4"/>
</g>
		<g transform="matrix(1 0 0 1 9.5 6.065)">
<path style="stroke: rgb(131,131,141); stroke-width: 2; stroke-dasharray: none; stroke-linecap: round; stroke-dashoffset: 0; stroke-linejoin: round; stroke-miterlimit: 4; is-custom-font: none; font-file-url: none; fill: none; fill-rule: nonzero; opacity: 1;" transform=" translate(-21.5, -18.065)" d="M 23 21 v -2 a 4 4 0 0 0 -3 -3.87" stroke-linecap="round"/>
</g>
		<g transform="matrix(1 0 0 1 5.5039 -4.995)">
<path style="stroke: rgb(131,131,141); stroke-width: 2; stroke-dasharray: none; stroke-linecap: round; stroke-dashoffset: 0; stroke-linejoin: round; stroke-miterlimit: 4; is-custom-font: none; font-file-url: none; fill: none; fill-rule: nonzero; opacity: 1;" transform=" translate(-17.5039, -7.005)" d="M 16 3.13 a 4 4 0 0 1 0 7.75" stroke-linecap="round"/>
</g>
</g>
</g>
</svg>