<svg xmlns="http://www.w3.org/2000/svg" xmlns:xlink="http://www.w3.org/1999/xlink" version="1.1" width="1000" height="1000" viewBox="0 0 1000 1000" xml:space="preserve">
<desc>Created with Fabric.js 3.5.0</desc>
<defs>
</defs>
<rect x="0" y="0" width="100%" height="100%" fill="rgba(255,255,255,0)"/>
<g transform="matrix(37.8788 0 0 37.8788 500.0001 500.0001)" id="944761">
<g style="" vector-effect="non-scaling-stroke">
		<g transform="matrix(1 0 0 1 0 0)">
<circle style="stroke: rgb(131,131,141); stroke-width: 2; stroke-dasharray: none; stroke-linecap: round; stroke-dashoffset: 0; stroke-linejoin: round; stroke-miterlimit: 4; is-custom-font: none; font-file-url: none; fill: none; fill-rule: nonzero; opacity: 1;" cx="0" cy="0" r="7"/>
</g>
		<g transform="matrix(1 0 0 1 0.75 -0.75)">
<polyline style="stroke: rgb(131,131,141); stroke-width: 2; stroke-dasharray: none; stroke-linecap: round; stroke-dashoffset: 0; stroke-linejoin: round; stroke-miterlimit: 4; is-custom-font: none; font-file-url: none; fill: none; fill-rule: nonzero; opacity: 1;" points="-0.75,-2.25 -0.75,0.75 0.75,2.25 "/>
</g>
		<g transform="matrix(1 0 0 1 0.005 0)">
<path style="stroke: rgb(131,131,141); stroke-width: 2; stroke-dasharray: none; stroke-linecap: round; stroke-dashoffset: 0; stroke-linejoin: round; stroke-miterlimit: 4; is-custom-font: none; font-file-url: none; fill: none; fill-rule: nonzero; opacity: 1;" transform=" translate(-12.005, -12)" d="M 16.51 17.35 l -0.35 3.83 a 2 2 0 0 1 -2 1.82 H 9.83 a 2 2 0 0 1 -2 -1.82 l -0.35 -3.83 m 0.01 -10.7 l 0.35 -3.83 A 2 2 0 0 1 9.83 1 h 4.35 a 2 2 0 0 1 2 1.82 l 0.35 3.83" stroke-linecap="round"/>
</g>
</g>
</g>
</svg>